# xmcd
#
# Track frame offsets:
# 150
# 11760
# 26856
# 37410
# 54033
# 67946
# 80782
# 97926
# 114952
# 128245
# 145172
#
# Disc length: 2151 seconds
#
# Revision: 2
# Processed by: cddbd v1.5PL3 Copyright (c) Steve Scherf et al.
# Submitted via: Axialis_AX_CDPlayer 2.6
#
DISCID=9008650b
DTITLE=Various Artist - Country Christmas Classics
DYEAR=1998
DGENRE=Country
TTITLE0=Lorrie Morgan - Let it Snow, Let it Snow, Let it Snow
TTITLE1=Clint Black - The Kid
TTITLE2=Lonestar - All My Love For Christmas
TTITLE3=Dolly Parton - Winter Wonderland - Sleigh Ride (Medley)
TTITLE4=John Anderson - What Child is This
TTITLE5=Steve Wariner - Noel, Noel
TTITLE6=Restless Heart - Little Drummer Boy
TTITLE7=Mindy McCready - Silent Night
TTITLE8=Kenny Chesney - Away In a Manger
TTITLE9=Martina McBride - O Holy Night
TTITLE10=Alabama - Christmas in Dixie
EXTD=\nYEAR: 1998  ID3G:   2
EXTT0=
EXTT1=
EXTT2=
EXTT3=
EXTT4=
EXTT5=
EXTT6=
EXTT7=
EXTT8=
EXTT9=
EXTT10=
PLAYORDER=
